<svg width="17" height="12" viewBox="0 0 17 12" fill="none" xmlns="http://www.w3.org/2000/svg">
<path d="M8.5 1.6C11.4286 1.6 14.0405 3.304 15.3155 6C14.0405 8.696 11.4364 10.4 8.5 10.4C5.56364 10.4 2.95955 8.696 1.68455 6C2.95955 3.304 5.57136 1.6 8.5 1.6ZM8.5 0C4.63636 0 1.33682 2.488 0 6C1.33682 9.512 4.63636 12 8.5 12C12.3636 12 15.6632 9.512 17 6C15.6632 2.488 12.3636 0 8.5 0ZM8.5 4C9.56636 4 10.4318 4.896 10.4318 6C10.4318 7.104 9.56636 8 8.5 8C7.43364 8 6.56818 7.104 6.56818 6C6.56818 4.896 7.43364 4 8.5 4ZM8.5 2.4C6.58364 2.4 5.02273 4.016 5.02273 6C5.02273 7.984 6.58364 9.6 8.5 9.6C10.4164 9.6 11.9773 7.984 11.9773 6C11.9773 4.016 10.4164 2.4 8.5 2.4Z" fill="#E94440"/>
</svg>
