<svg width="20" height="17" viewBox="0 0 20 17" fill="none" xmlns="http://www.w3.org/2000/svg">
<path d="M10 3.15144C13.4455 3.15144 16.5182 5.0423 18.0182 8.03394C17.4818 9.11697 16.7273 10.0491 15.8273 10.8037L17.1091 12.0554C18.3727 10.9634 19.3727 9.59634 20 8.03394C18.4273 4.13681 14.5455 1.37598 10 1.37598C8.84545 1.37598 7.73636 1.55352 6.69091 1.88198L8.19091 3.34674C8.78182 3.23133 9.38182 3.15144 10 3.15144ZM9.02727 4.16345L10.9091 6.00104C11.4273 6.22298 11.8455 6.63133 12.0727 7.13734L13.9545 8.97494C14.0273 8.67311 14.0818 8.35352 14.0818 8.02507C14.0909 5.8235 12.2545 4.03916 10 4.03916C9.66364 4.03916 9.34546 4.08355 9.02727 4.16345ZM0.918182 1.26057L3.35455 3.63969C1.87273 4.77598 0.7 6.28512 0 8.03394C1.57273 11.9311 5.45455 14.6919 10 14.6919C11.3818 14.6919 12.7091 14.4345 13.9273 13.964L17.0364 17L18.3182 15.7483L2.2 0L0.918182 1.26057ZM7.73636 7.91854L10.1091 10.2355C10.0727 10.2444 10.0364 10.2533 10 10.2533C8.74545 10.2533 7.72727 9.25901 7.72727 8.03394C7.72727 7.98956 7.73636 7.96292 7.73636 7.91854ZM4.64545 4.90026L6.23636 6.45379C6.02727 6.94204 5.90909 7.47467 5.90909 8.03394C5.90909 10.2355 7.74545 12.0287 10 12.0287C10.5727 12.0287 11.1182 11.9133 11.6091 11.7091L12.5 12.5791C11.7 12.7922 10.8636 12.9164 10 12.9164C6.55455 12.9164 3.48182 11.0256 1.98182 8.03394C2.61818 6.76449 3.54545 5.71697 4.64545 4.90026Z" fill="#DB2A1B"/>
</svg>
